<?xml version="1.0" encoding="UTF-8" standalone="yes"?>
<svg xmlns="http://www.w3.org/2000/svg" viewBox="0 0 24 24" width="44" height="44">
  <title>Sword</title>
  <path d="M23.85.15A.5.5,0,0,0,23.34,0l-6,2a.5.5,0,0,0-.22.15L7.41,13.7,4.85,11.15a.5.5,0,0,0-.71,0l-1,1a.5.5,0,0,0-.08.61l2.14,3.56L2.1,20H2a2,2,0,1,0,2,2s0-.07,0-.1l3.69-3.11,3.56,2.14a.5.5,0,0,0,.61-.08l1-1a.5.5,0,0,0,0-.71L10.3,16.59,21.82,6.88A.5.5,0,0,0,22,6.66l2-6A.5.5,0,0,0,23.85.15Z" class=" ns-fill-0" fill="#303c42"/>

</svg>