<?xml version="1.0" encoding="UTF-8" standalone="yes"?>
<svg xmlns="http://www.w3.org/2000/svg" viewBox="0 0 24 24" width="44" height="44">
  <title>Heart Rate</title>
  <path d="M19.3,13h-3.8c-0.5,0-0.9-0.2-1.2-0.6c-0.2-0.2-0.5-0.3-0.7-0.1c-0.1,0.1-0.2,0.2-0.2,0.3l-1,4.2 c-0.1,0.6-0.6,1.1-1.2,1.2c-0.6,0.1-1.2-0.2-1.5-0.8l-1.9-3.9C7.6,13.1,7.5,13,7.3,13H4.7c-0.3,0-0.5,0.2-0.5,0.5 c0,0.1,0,0.2,0.1,0.3l7.3,9c0.2,0.2,0.5,0.2,0.7,0.1c0,0,0.1,0,0.1-0.1l7.3-9c0.2-0.2,0.1-0.5-0.1-0.7C19.6,13,19.5,13,19.3,13z" class=" ns-fill-0" fill="#303c42"/>
  <path d="M16.5,1c-1.7,0-3.3,0.7-4.5,1.8c-2.5-2.5-6.6-2.5-9.2,0c-2.5,2.5-2.5,6.4-0.2,9C2.7,11.9,2.9,12,3,12h4.9 c0.2,0,0.4,0.1,0.4,0.3l2.2,4.4c0.1,0.2,0.3,0.3,0.4,0.3h0.1c0.2,0,0.4-0.2,0.4-0.4l1.7-7.5c0.1-0.2,0.3-0.4,0.5-0.4 c0.2,0,0.4,0.1,0.5,0.3l0.9,2.6c0.1,0.2,0.3,0.3,0.5,0.3H21c0.2,0,0.3-0.1,0.4-0.2c2.4-2.7,2.1-6.8-0.5-9.2C19.7,1.6,18.1,1,16.5,1 z" class=" ns-fill-0" fill="#303c42"/>
  <path d="M11,17c-0.2,0-0.4-0.1-0.4-0.3L8.2,12H1.5C1.2,12,1,11.8,1,11.5S1.2,11,1.5,11h7c0.2,0,0.4,0.1,0.4,0.3 l1.9,3.7L13,5.4c0-0.3,0.2-0.5,0.5-0.5S14,5.1,14,5.4l1.9,5.6h6.6c0.3,0,0.5,0.2,0.5,0.5S22.8,12,22.5,12h-7 c-0.2,0-0.4-0.1-0.5-0.3l-1.4-4.3l-2.1,9.3C11.5,16.8,11.3,17,11,17L11,17z" class=" ns-fill-0" fill="#303c42"/>

</svg>