<?xml version="1.0" encoding="UTF-8" standalone="yes"?>
<svg xmlns="http://www.w3.org/2000/svg" viewBox="0 0 24 24" width="44" height="44">
  <title>Shield</title>
  <path d="M20.67,3,17.67,2a.5.5,0,0,0-.67.47V3.81l-2-.67V1.38a.5.5,0,0,0-.33-.47L12.17,0a.5.5,0,0,0-.33,0L9.33.91A.5.5,0,0,0,9,1.38V3.14L7,3.81V2.44A.5.5,0,0,0,6.33,2L3.33,3A.5.5,0,0,0,3,3.5v6c0,7.76,1.15,10.6,8.77,14.45a.5.5,0,0,0,.45,0C19.85,20.1,21,17.26,21,9.5v-6A.5.5,0,0,0,20.67,3ZM12.24,20.44A.5.5,0,0,1,11.5,20V13H6.57a.5.5,0,0,1-.5-.47C6,11.75,6,7.5,6,7.5A.5.5,0,0,1,6.33,7l5.5-2a.5.5,0,0,1,.67.47V12h4.93a.5.5,0,0,1,.5.53C17.67,16.51,16.5,18.13,12.24,20.44Z" class=" ns-fill-0" fill="#303c42"/>
  
</svg>